<svg width="99" height="54" viewBox="0 0 99 54" fill="none" xmlns="http://www.w3.org/2000/svg">
<path d="M27.8486 30.1453C27.6753 30.0154 27.4767 29.9246 27.2662 29.8792C27.0557 29.8338 26.8384 29.8348 26.6288 29.8821L26.5756 29.8917C26.2692 29.9592 25.9829 30.0979 25.739 30.2969C25.5106 30.4831 25.3236 30.7163 25.1904 30.9814L26.0461 35.7149C26.0953 36.0807 26.2321 36.4292 26.4445 36.7297C26.603 36.9405 26.8192 37.0993 27.0657 37.1863C27.2834 37.2604 27.5139 37.2863 27.7418 37.2621L27.8023 37.2512C28.3432 37.1534 28.74 36.9077 28.991 36.5195C29.271 36.0553 29.4241 35.5233 29.4346 34.9779C29.4643 34.3332 29.42 33.6867 29.3026 33.0516C29.1983 32.4595 29.0186 31.8834 28.7678 31.3377C28.563 30.8697 28.2471 30.4599 27.8486 30.1453V30.1453Z" fill="#303030"/>
<path d="M74.3551 21.0802C74.1133 20.9782 73.8474 20.9511 73.5912 21.0024C73.3543 21.035 73.1294 21.1271 72.9371 21.2706C72.7447 21.414 72.591 21.6041 72.4899 21.8237C72.3086 22.2031 72.2057 22.8781 72.217 23.6391L75.4313 23.0581C75.3014 22.4569 75.1227 21.9178 74.9687 21.6676C74.8279 21.413 74.6137 21.2079 74.3551 21.0802V21.0802Z" fill="#303030"/>
<path d="M73.9986 3.29805L18.2437 13.3774C8.20876 15.1916 1.50787 25.0164 3.3507 35.2102C5.19353 45.404 14.9102 52.2609 24.9451 50.4468L80.7 40.3674C90.7337 38.5535 97.4358 28.7284 95.593 18.5346C93.7502 8.34086 84.0323 1.48415 73.9986 3.29805ZM40.5702 21.0223C40.7052 20.8231 40.8781 20.6535 41.0788 20.5235C41.2796 20.3934 41.5041 20.3056 41.7393 20.265C41.9726 20.2173 42.2134 20.2198 42.4463 20.2721C42.6792 20.3245 42.8989 20.4256 43.0915 20.569C43.2857 20.7079 43.4508 20.8846 43.5772 21.0887C43.7036 21.2928 43.7887 21.5203 43.8276 21.7577C43.9225 22.2265 43.8375 22.7133 43.5899 23.1186C43.4614 23.3254 43.2897 23.501 43.0869 23.6331C42.8841 23.7651 42.6551 23.8505 42.4159 23.8831C42.1746 23.9345 41.9252 23.9349 41.6833 23.8842C41.4413 23.8336 41.2118 23.7331 41.0092 23.5889C40.8125 23.4521 40.6449 23.2765 40.5165 23.0725C40.3881 22.8686 40.3017 22.6405 40.2623 22.4022C40.2154 22.1623 40.2185 21.9152 40.2715 21.6771C40.3244 21.439 40.4261 21.2151 40.5698 21.0198L40.5702 21.0223ZM32.451 35.2859C32.2257 36.2002 31.7519 37.0306 31.0834 37.6827C30.4235 38.3188 29.5559 38.7384 28.5042 38.9286C28.0162 38.9964 27.5214 39.0005 27.0317 38.9408C26.465 38.8808 25.9207 38.6806 25.4466 38.3577L25.5577 38.9724C25.5641 39.0077 25.5568 39.0441 25.5373 39.0739C25.5167 39.1028 25.4858 39.1226 25.451 39.1288L23.6357 39.457C23.6185 39.4603 23.6008 39.46 23.5836 39.4563C23.5664 39.4526 23.5501 39.4455 23.5356 39.4354C23.5211 39.4253 23.5087 39.4123 23.4991 39.3973C23.4895 39.3823 23.483 39.3656 23.4798 39.348L21.3905 27.7908L21.0904 26.131L20.7274 26.1966L19.8548 26.3543C19.8411 26.3569 19.8271 26.3566 19.8135 26.3536C19.7998 26.3507 19.7869 26.345 19.7754 26.3369C19.764 26.3288 19.7542 26.3185 19.7467 26.3066C19.7392 26.2946 19.7341 26.2813 19.7316 26.2674L19.4665 24.8006C19.4601 24.7654 19.4678 24.7291 19.4878 24.6998C19.5078 24.6705 19.5385 24.6505 19.5732 24.6442C20.0966 24.555 20.6127 24.4269 21.1173 24.2609C21.4494 24.1501 21.77 24.0071 22.0749 23.8339C22.2366 23.7449 22.3846 23.6326 22.5145 23.5005C22.5335 23.4768 22.5605 23.4611 22.5902 23.4563L23.6576 23.2633C23.6926 23.257 23.7287 23.2651 23.758 23.2857C23.7873 23.3064 23.8074 23.338 23.8138 23.3735L24.8549 29.1325C25.1755 28.7442 25.5614 28.4166 25.9947 28.1646C26.411 27.9263 26.8632 27.7588 27.3334 27.6687C28.117 27.5119 28.9302 27.5999 29.6661 27.9212C30.4063 28.2628 31.0377 28.8087 31.4881 29.4963C31.9829 30.222 32.3316 31.1277 32.5235 32.1888C32.7251 33.2144 32.7002 34.2713 32.4505 35.2835L32.451 35.2859ZM40.3879 27.8671C40.3432 28.1237 40.2316 28.363 40.0646 28.5604C39.8595 28.7782 39.5863 28.9173 39.291 28.9542C39.0015 28.9989 38.705 28.9587 38.4364 28.8382C38.1407 28.7164 37.924 28.4369 37.7919 28.0037C37.583 28.0832 37.403 28.225 37.2756 28.4107C37.0722 28.6835 36.9065 28.9834 36.7831 29.3021L36.7696 29.3376C36.6627 29.6109 36.5116 29.9848 36.5634 30.2713L37.4452 35.1487L38.4605 34.9651C38.4881 34.9601 38.5166 34.9665 38.5397 34.9828C38.5628 34.9991 38.5786 35.024 38.5837 35.052L38.8644 36.6049C38.8695 36.6329 38.8634 36.6618 38.8475 36.6852C38.8315 36.7085 38.8071 36.7245 38.7795 36.7295L33.854 37.6199C33.8403 37.6225 33.8262 37.6224 33.8126 37.6194C33.7989 37.6164 33.786 37.6108 33.7745 37.6027C33.763 37.5946 33.7532 37.5842 33.7457 37.5722C33.7382 37.5603 33.7331 37.5469 33.7308 37.533L33.4907 36.2051C33.4882 36.1912 33.4884 36.177 33.4913 36.1632C33.4943 36.1494 33.4998 36.1364 33.5077 36.1248C33.5156 36.1133 33.5257 36.1034 33.5373 36.0958C33.549 36.0882 33.562 36.083 33.5757 36.0806C33.848 36.0313 33.8776 35.9879 33.9653 35.8578L34.0041 35.8025C34.1224 35.6141 34.1777 35.3918 34.1619 35.1683C34.152 34.8508 34.1174 34.5344 34.0583 34.2221L33.538 31.3439C33.47 30.9676 33.4026 30.5951 33.3488 30.2353C33.295 29.8756 33.2319 29.5264 33.1657 29.16L32.488 29.2825C32.4604 29.2871 32.432 29.2809 32.4086 29.2651C32.3972 29.257 32.3874 29.2467 32.3799 29.2348C32.3724 29.2228 32.3672 29.2095 32.3648 29.1956C32.3379 29.0468 32.1012 27.7374 32.1007 27.735C32.0961 27.7076 32.1019 27.6795 32.117 27.6565C32.1321 27.6334 32.1554 27.6172 32.1821 27.6111C32.3285 27.5846 32.6154 27.4921 32.6712 27.4757C33.0406 27.3659 33.3984 27.22 33.7397 27.04C33.8989 26.9558 34.0515 26.8594 34.1963 26.7518L34.26 26.7034C34.3763 26.6033 34.5086 26.524 34.6513 26.4689C34.7149 26.4473 35.1648 26.3507 35.4552 26.2982C35.54 26.2829 35.6065 26.2708 35.6537 26.2623C35.7009 26.2538 35.831 26.2404 35.8514 26.3535L36.109 27.7785C36.281 27.4424 36.4795 27.1212 36.7027 26.8179C36.9221 26.5152 37.1876 26.25 37.4892 26.032C37.7524 25.8477 38.0511 25.7219 38.366 25.6628C38.7973 25.5779 39.245 25.6523 39.6287 25.8725C40.0218 26.0973 40.279 26.532 40.3933 27.164C40.4337 27.3961 40.4317 27.6336 40.3875 27.8646L40.3879 27.8671ZM47.3822 35.0676C47.3849 35.0815 47.3848 35.0958 47.382 35.1096C47.3792 35.1235 47.3736 35.1366 47.3657 35.1482C47.3578 35.1598 47.3476 35.1696 47.3359 35.1772C47.3241 35.1847 47.311 35.1898 47.2973 35.1921L42.1491 36.1228C42.1215 36.1278 42.093 36.1215 42.0699 36.1052C42.0468 36.0889 42.031 36.064 42.0259 36.0359L41.7854 34.7056C41.7807 34.6776 41.7869 34.6489 41.8028 34.6256C41.8187 34.6023 41.8429 34.5863 41.8704 34.581C42.1947 34.5224 42.4141 34.4155 42.5212 34.2615C42.6402 34.073 42.6954 33.85 42.6788 33.6261C42.6688 33.3077 42.6341 32.9905 42.5748 32.6774L41.9538 29.2422L41.9093 28.9963C41.8771 28.818 41.844 28.6348 41.8053 28.4209C41.7808 28.2857 41.7573 28.1553 41.7346 28.0299C41.7119 27.9045 41.6844 27.7521 41.6597 27.6156C41.6173 27.6232 41.5629 27.6331 41.5012 27.6442C41.414 27.66 41.3293 27.6753 41.251 27.6984L41.2437 27.6997C41.2292 27.7024 41.2142 27.702 41.1998 27.6984C41.1854 27.6949 41.1719 27.6884 41.1601 27.6792C41.1473 27.6691 41.137 27.6561 41.13 27.6413C41.123 27.6265 41.1194 27.6103 41.1196 27.5939C41.1288 27.3251 41.1029 27.0561 41.0425 26.7939C40.984 26.5684 40.9026 26.3495 40.7995 26.1408C40.7921 26.1264 40.7881 26.1104 40.7878 26.0942C40.7874 26.078 40.7908 26.0619 40.7975 26.0472C40.8038 26.0308 40.814 26.0164 40.8273 26.0051C40.8405 25.9938 40.8564 25.9861 40.8734 25.9827C41.4631 25.8557 42.0271 25.6289 42.5417 25.3116V25.3116C42.693 25.2273 42.8287 25.1169 42.9426 24.9852C42.9583 24.9637 42.9816 24.949 43.0077 24.9443L44.2493 24.7198C44.2768 24.7152 44.305 24.7217 44.3278 24.738C44.3506 24.7544 44.3663 24.7791 44.3713 24.8069L44.9661 28.0971C45.0412 28.5126 45.7618 32.6091 45.935 33.6088L46.977 33.4204C46.9907 33.4178 47.0047 33.418 47.0184 33.4209C47.032 33.4239 47.045 33.4296 47.0565 33.4377C47.0679 33.4458 47.0777 33.4561 47.0852 33.4681C47.0927 33.48 47.0978 33.4934 47.1002 33.5074L47.3822 35.0676ZM55.9791 32.419C55.7023 32.9628 55.2859 33.4201 54.7737 33.7428C54.24 34.0841 53.645 34.3159 53.0224 34.4251C52.444 34.5302 51.854 34.5578 51.2676 34.5074C50.8452 34.4786 50.4285 34.3894 50.03 34.2423L50.084 34.5411C50.0875 34.5585 50.0875 34.5765 50.084 34.594C50.0805 34.6114 50.0735 34.6279 50.0636 34.6425C50.0538 34.6573 50.0411 34.67 50.0263 34.6796C50.0115 34.6893 49.9949 34.6958 49.9775 34.6987L48.4406 34.9766C48.4232 34.9799 48.4054 34.9796 48.3882 34.9757C48.371 34.9719 48.3547 34.9645 48.3403 34.9541C48.3255 34.9445 48.3129 34.9318 48.3033 34.9169C48.2937 34.902 48.2873 34.8852 48.2846 34.8676L47.6687 31.4607C47.6627 31.4253 47.6706 31.389 47.6908 31.3597C47.711 31.3303 47.7419 31.3103 47.7766 31.3041L48.8816 31.1043C48.9145 31.0983 48.9485 31.1052 48.9767 31.1237C49.0048 31.1422 49.0251 31.1709 49.0333 31.2039C49.1506 31.5796 49.3788 31.9103 49.6869 32.151C50.0492 32.4366 50.472 32.6324 50.9213 32.7226C51.4424 32.8305 51.9789 32.8336 52.5001 32.7318C52.7168 32.6937 52.9264 32.6224 53.1217 32.5204C53.2988 32.4298 53.4491 32.2936 53.5577 32.1254C53.6085 32.0472 53.6433 31.9594 53.6601 31.8672C53.677 31.775 53.6754 31.6802 53.6556 31.5884C53.6402 31.4841 53.6015 31.3846 53.5424 31.2975C53.4834 31.2105 53.4055 31.1382 53.3149 31.0862C53.0457 30.9404 52.7564 30.8368 52.457 30.7792C52.0869 30.695 51.6183 30.6057 51.0601 30.5111C50.6021 30.4251 50.137 30.3339 49.6785 30.2378C49.2225 30.1437 48.7776 30.0002 48.3514 29.8099C47.9374 29.6272 47.568 29.3541 47.2694 29.01C46.9508 28.6215 46.7427 28.1523 46.668 27.6535C46.5952 27.2412 46.6011 26.819 46.6857 26.4099C46.7765 25.9703 46.9569 25.5554 47.2153 25.1917C47.5091 24.7817 47.8843 24.4389 48.3168 24.1851C48.8508 23.8772 49.4357 23.6699 50.0433 23.5733C50.4803 23.5025 50.9242 23.4827 51.3662 23.5145C51.7603 23.5326 52.1497 23.6107 52.5216 23.7462L52.4549 23.3773C52.4485 23.3418 52.4562 23.3052 52.4764 23.2756C52.4966 23.246 52.5276 23.2258 52.5626 23.2195L54.0717 22.9466C54.1067 22.9403 54.1428 22.9484 54.1721 22.969C54.2014 22.9897 54.2214 23.0213 54.2278 23.0568L54.866 26.5867C54.8691 26.6042 54.8689 26.6222 54.8652 26.6396C54.8614 26.657 54.8544 26.6735 54.8443 26.688C54.8343 26.7026 54.8215 26.715 54.8067 26.7245C54.7919 26.734 54.7754 26.7404 54.7581 26.7433L53.5031 26.9702C53.4724 26.9759 53.4407 26.9704 53.4136 26.9546C53.3865 26.9388 53.3657 26.9138 53.355 26.884C53.2136 26.479 52.9818 26.1124 52.6778 25.8129C52.3813 25.5307 52.0198 25.3287 51.6268 25.2259C51.1983 25.1164 50.7519 25.1035 50.319 25.188C50.0159 25.237 49.7318 25.3677 49.4964 25.5666C49.2803 25.7542 49.2033 26.0195 49.268 26.3773C49.2847 26.5038 49.3299 26.6248 49.4 26.731C49.4702 26.8373 49.5634 26.9258 49.6724 26.9898C49.9608 27.144 50.2753 27.241 50.5989 27.2756C50.9963 27.3307 51.441 27.3989 51.9218 27.4795C52.5977 27.5747 53.2628 27.7395 53.9066 27.9714C54.4648 28.1687 54.9753 28.4857 55.403 28.9007C55.8239 29.3358 56.0997 29.8937 56.1912 30.4952C56.3249 31.2277 56.2528 31.8731 55.9786 32.4165L55.9791 32.419ZM64.418 31.0953L64.3986 31.1191C64.0988 31.5129 63.7427 31.8589 63.3419 32.1456C62.8398 32.4959 62.2724 32.7389 61.6739 32.8598L61.5758 32.8775C60.9707 32.9869 60.0893 33.0193 59.3076 32.546C58.8963 32.2733 58.5625 31.8957 58.3399 31.4513C58.0626 30.9479 57.8477 30.2566 57.7035 29.3965C57.6186 28.9268 57.5323 28.4498 57.449 27.9887C57.4072 27.7576 57.3638 27.5178 57.3214 27.283L56.8235 24.5289L55.6133 24.7477C55.596 24.7508 55.5783 24.7504 55.5612 24.7466C55.544 24.7427 55.5277 24.7354 55.5133 24.7252C55.4989 24.7149 55.4867 24.7018 55.4772 24.6868C55.4678 24.6717 55.4614 24.6549 55.4584 24.6373L55.1405 22.8791C55.1344 22.8456 55.1409 22.8109 55.1589 22.7823C55.1769 22.7536 55.205 22.7329 55.2375 22.7245C55.6415 22.6378 56.0097 22.4297 56.2943 22.1271C56.6315 21.7641 56.894 21.3365 57.0667 20.8689C57.2518 20.4234 57.3537 19.9465 57.3673 19.4624C57.3677 19.4311 57.3788 19.4011 57.3987 19.3773C57.4185 19.3536 57.4459 19.3377 57.4762 19.3322L58.8958 19.0756C58.9304 19.0693 58.9662 19.0773 58.9952 19.0978C59.0242 19.1182 59.0441 19.1495 59.0505 19.1847L59.5484 21.9388L62.5738 21.3919C62.5911 21.3887 62.6088 21.3891 62.626 21.393C62.6431 21.3969 62.6594 21.4041 62.6738 21.4144C62.6882 21.4247 62.7005 21.4377 62.7099 21.4528C62.7194 21.4679 62.7258 21.4847 62.7288 21.5022L63.038 23.2125C63.0443 23.2477 63.0367 23.284 63.0166 23.3133C62.9966 23.3426 62.9659 23.3626 62.9313 23.3689L59.9288 23.9117L59.9885 24.2424C60.0803 24.7502 60.1597 25.1891 60.2595 25.7412L60.3262 26.11C60.4286 26.6768 60.5344 27.2621 60.6205 27.842L60.6256 27.8702C60.6895 28.3133 60.7558 28.7698 60.8673 29.2067C60.9142 29.4006 60.9729 29.5914 61.043 29.778C61.2239 30.2532 61.6083 30.5545 62.0457 30.5681C62.1246 30.5706 62.2036 30.5648 62.2813 30.5509C62.6746 30.4798 63.0718 30.2023 63.4634 29.7277C63.4804 29.7043 63.5856 29.5393 63.6341 29.462C63.6441 29.4463 63.6571 29.4328 63.6725 29.4224C63.6878 29.412 63.705 29.4049 63.7231 29.4014C63.7548 29.3955 63.7876 29.4018 63.8151 29.4191C64.0016 29.5314 64.2208 29.6657 64.4401 29.814L64.6769 29.9693L64.9136 30.1245C64.929 30.1353 64.942 30.1492 64.9518 30.1654C64.9616 30.1815 64.968 30.1996 64.9706 30.2183C64.9792 30.2866 64.9935 30.3932 64.418 31.0953ZM70.2109 30.9102C70.2172 30.9454 70.2096 30.9816 70.1896 31.011C70.1695 31.0403 70.1388 31.0603 70.1042 31.0666L65.8164 31.8417C65.7991 31.8454 65.7811 31.8454 65.7637 31.8419C65.7462 31.8384 65.7296 31.8314 65.7149 31.8213C65.7001 31.8112 65.6875 31.7981 65.6777 31.783C65.668 31.7679 65.6613 31.751 65.6581 31.7332L65.4274 30.457C65.4199 30.4154 65.4286 30.3726 65.4516 30.3376C65.4747 30.3027 65.5103 30.2783 65.551 30.2696C65.7107 30.2407 65.7861 29.9731 65.7813 29.5042C65.7699 29.2506 65.7343 28.9985 65.6752 28.7514C65.6594 28.6641 65.6432 28.5744 65.627 28.4846L63.8055 18.4089L63.63 18.4406L63.204 18.5176L62.8107 18.5888L62.6025 18.6264C62.5854 18.6295 62.5678 18.6291 62.5507 18.6253C62.5336 18.6215 62.5175 18.6143 62.5031 18.6042C62.4887 18.5941 62.4765 18.5812 62.467 18.5662C62.4575 18.5513 62.451 18.5347 62.4478 18.5172L62.188 17.0799C62.1848 17.0624 62.1851 17.0444 62.1888 17.027C62.1925 17.0096 62.1996 16.9932 62.2097 16.9786C62.2197 16.964 62.2325 16.9517 62.2473 16.9422C62.2621 16.9327 62.2786 16.9263 62.2959 16.9233C62.8167 16.8349 63.3299 16.7069 63.8314 16.5403C64.1621 16.4305 64.4813 16.2878 64.7841 16.1142C64.9462 16.0257 65.0943 15.9134 65.2237 15.7808C65.243 15.7567 65.2704 15.7409 65.3007 15.7364L66.3826 15.5408C66.3999 15.5377 66.4176 15.5381 66.4347 15.5419C66.4519 15.5458 66.4682 15.5531 66.4826 15.5633C66.497 15.5736 66.5092 15.5866 66.5187 15.6017C66.5281 15.6168 66.5345 15.6336 66.5375 15.6512L68.6984 27.6043C68.7429 27.8502 68.7873 28.0961 68.8291 28.3273C68.8938 28.6851 68.9605 29.0539 69.0274 29.424L69.2464 29.3844L69.7959 29.2851C69.8131 29.2821 69.8307 29.2827 69.8477 29.2866C69.8647 29.2906 69.8808 29.2979 69.8951 29.3082C69.9094 29.3185 69.9215 29.3315 69.9309 29.3465C69.9402 29.3615 69.9466 29.3782 69.9496 29.3957L70.2109 30.9102ZM79.1238 27.0998C78.8524 27.7901 78.4554 28.4218 77.9533 28.962C77.5427 29.3898 77.0569 29.736 76.5207 29.9828C76.0768 30.1853 75.6111 30.3347 75.1327 30.428C74.2622 30.6016 73.3597 30.5209 72.5299 30.1951C71.7186 29.8597 71.0178 29.296 70.5103 28.5706C69.9683 27.8192 69.5908 26.8717 69.3889 25.7553C69.2134 24.814 69.2477 23.846 69.4892 22.9223C69.7149 22.0333 70.1643 21.2202 70.7934 20.5623C71.4372 19.9007 72.2728 19.4651 73.1793 19.3184C73.7132 19.2238 74.2584 19.2109 74.797 19.2799C75.3495 19.3526 75.8795 19.5506 76.3477 19.8592C76.8807 20.2235 77.3232 20.7087 77.6399 21.2761C77.9968 21.868 78.2834 22.7621 78.4576 23.7946C78.4636 23.8295 78.4558 23.8652 78.4361 23.8942C78.4163 23.9232 78.3861 23.9431 78.3519 23.9496L72.3213 25.0385C72.4338 25.662 72.6298 26.2674 72.904 26.8377C73.1308 27.3308 73.4944 27.7466 73.95 28.0338C74.3713 28.2903 74.9054 28.369 75.5287 28.2563C75.8073 28.1992 76.0763 28.1022 76.3277 27.9684C76.6462 27.8012 76.9376 27.5859 77.192 27.3297C77.4886 27.0318 77.7356 26.687 77.9235 26.3087C77.9328 26.2908 77.9459 26.2753 77.9619 26.2634C77.978 26.2515 77.9965 26.2434 78.0161 26.2399C78.0329 26.2368 78.0502 26.2371 78.067 26.2409C78.0837 26.2446 78.0996 26.2516 78.1137 26.2616L79.0708 26.938C79.0959 26.9554 79.1146 26.9809 79.1238 27.0104C79.1329 27.0398 79.1321 27.0714 79.1214 27.1002L79.1238 27.0998Z" fill="#303030"/>
</svg>
