<svg width="797" height="218" viewBox="0 0 797 218" fill="none" xmlns="http://www.w3.org/2000/svg">
<mask id="mask0" mask-type="alpha" maskUnits="userSpaceOnUse" x="0" y="39" width="789" height="124">
<path d="M110.679 159.5H84.5264L68.9934 110.365H68.6764L53.4604 159.5H27.3079L0.0458984 80.567H28.1004L41.7314 130.494H42.2069L56.3134 80.567H82.4659L97.0479 130.494H97.3649L111.154 80.567H138.099L110.679 159.5ZM174.633 55.3655C174.633 57.3732 174.21 59.2752 173.365 61.0715C172.625 62.7622 171.568 64.2415 170.195 65.5095C168.927 66.7775 167.342 67.7813 165.44 68.521C163.643 69.2607 161.741 69.6305 159.734 69.6305C155.507 69.6305 151.967 68.2568 149.114 65.5095C146.261 62.6565 144.835 59.2752 144.835 55.3655C144.835 53.4635 145.204 51.6672 145.944 49.9765C146.684 48.1802 147.74 46.648 149.114 45.38C150.488 44.112 152.073 43.1082 153.869 42.3685C155.665 41.5232 157.62 41.1005 159.734 41.1005C161.741 41.1005 163.643 41.4703 165.44 42.21C167.342 42.9497 168.927 43.9535 170.195 45.2215C171.568 46.4895 172.625 48.0217 173.365 49.818C174.21 51.5087 174.633 53.3578 174.633 55.3655ZM146.737 159.5V80.567H172.731V159.5H146.737ZM243.31 159.5V116.388C243.31 114.169 243.099 112.056 242.676 110.048C242.359 108.04 241.778 106.297 240.933 104.817C240.088 103.232 238.872 102.017 237.287 101.172C235.808 100.221 233.906 99.7455 231.581 99.7455C229.257 99.7455 227.196 100.221 225.4 101.172C223.709 102.017 222.283 103.232 221.12 104.817C219.958 106.402 219.06 108.252 218.426 110.365C217.898 112.373 217.633 114.486 217.633 116.705V159.5H191.481V80.567H216.682V91.5035H216.999C217.95 89.8128 219.166 88.175 220.645 86.59C222.23 84.8993 224.026 83.4728 226.034 82.3105C228.147 81.1482 230.419 80.1972 232.849 79.4575C235.28 78.7178 237.869 78.348 240.616 78.348C245.899 78.348 250.39 79.299 254.088 81.201C257.787 83.103 260.745 85.5862 262.964 88.6505C265.289 91.6092 266.927 95.0433 267.878 98.953C268.935 102.863 269.463 106.772 269.463 110.682V159.5H243.31ZM347.066 159.5V149.197H346.749C344.213 153.213 340.568 156.33 335.813 158.549C331.163 160.662 326.197 161.719 320.914 161.719C314.996 161.719 309.713 160.557 305.064 158.232C300.414 155.907 296.452 152.843 293.176 149.039C290.006 145.129 287.576 140.638 285.885 135.566C284.195 130.494 283.349 125.211 283.349 119.716C283.349 114.222 284.195 108.991 285.885 104.025C287.682 98.953 290.165 94.515 293.335 90.711C296.61 86.907 300.52 83.8955 305.064 81.6765C309.713 79.4575 314.891 78.348 320.597 78.348C326.408 78.348 331.322 79.4575 335.337 81.6765C339.353 83.8955 342.47 86.3258 344.689 88.9675H345.006V39.674H371V159.5H347.066ZM346.115 119.875C346.115 117.339 345.64 114.856 344.689 112.425C343.843 109.995 342.575 107.829 340.885 105.927C339.3 104.025 337.345 102.493 335.02 101.33C332.696 100.168 330.054 99.587 327.095 99.587C324.031 99.587 321.336 100.168 319.012 101.33C316.687 102.493 314.732 104.025 313.147 105.927C311.562 107.723 310.347 109.837 309.502 112.267C308.762 114.697 308.392 117.18 308.392 119.716C308.392 122.252 308.762 124.788 309.502 127.324C310.347 129.755 311.562 131.921 313.147 133.823C314.732 135.725 316.687 137.257 319.012 138.419C321.336 139.582 324.031 140.163 327.095 140.163C330.054 140.163 332.696 139.582 335.02 138.419C337.345 137.257 339.3 135.725 340.885 133.823C342.575 131.921 343.843 129.755 344.689 127.324C345.64 124.894 346.115 122.411 346.115 119.875ZM436.239 103.866C434.126 101.859 431.642 100.168 428.789 98.7945C425.936 97.4208 422.925 96.734 419.755 96.734C417.325 96.734 415.053 97.2095 412.939 98.1605C410.932 99.1115 409.928 100.749 409.928 103.074C409.928 105.293 411.037 106.878 413.256 107.829C415.581 108.78 419.279 109.837 424.351 110.999C427.31 111.633 430.269 112.531 433.227 113.693C436.292 114.856 439.039 116.388 441.469 118.29C443.9 120.192 445.855 122.517 447.334 125.264C448.813 128.011 449.553 131.287 449.553 135.091C449.553 140.057 448.549 144.284 446.541 147.771C444.534 151.152 441.892 153.9 438.616 156.013C435.446 158.126 431.854 159.659 427.838 160.61C423.823 161.561 419.808 162.036 415.792 162.036C409.347 162.036 403.007 161.032 396.772 159.024C390.644 156.911 385.519 153.847 381.398 149.831L395.98 134.457C398.305 136.993 401.158 139.106 404.539 140.797C407.92 142.488 411.513 143.333 415.317 143.333C417.43 143.333 419.491 142.857 421.498 141.906C423.612 140.85 424.668 139.053 424.668 136.517C424.668 134.087 423.4 132.291 420.864 131.128C418.328 129.966 414.366 128.751 408.977 127.483C406.23 126.849 403.482 126.004 400.735 124.947C397.988 123.89 395.504 122.464 393.285 120.667C391.172 118.871 389.429 116.652 388.055 114.01C386.681 111.369 385.994 108.199 385.994 104.5C385.994 99.7455 386.998 95.7302 389.006 92.4545C391.014 89.0732 393.602 86.3258 396.772 84.2125C399.942 82.0992 403.429 80.567 407.233 79.616C411.143 78.5593 415 78.031 418.804 78.031C424.721 78.031 430.48 78.982 436.08 80.884C441.786 82.6803 446.594 85.4277 450.504 89.126L436.239 103.866ZM546.409 119.716C546.409 126.162 545.247 132.027 542.922 137.31C540.597 142.488 537.427 146.926 533.412 150.624C529.397 154.217 524.747 157.017 519.464 159.024C514.181 161.032 508.528 162.036 502.505 162.036C496.587 162.036 490.934 161.032 485.545 159.024C480.262 157.017 475.612 154.217 471.597 150.624C467.687 146.926 464.57 142.488 462.246 137.31C459.921 132.027 458.759 126.162 458.759 119.716C458.759 113.271 459.921 107.459 462.246 102.281C464.57 97.1038 467.687 92.7187 471.597 89.126C475.612 85.5333 480.262 82.786 485.545 80.884C490.934 78.982 496.587 78.031 502.505 78.031C508.528 78.031 514.181 78.982 519.464 80.884C524.747 82.786 529.397 85.5333 533.412 89.126C537.427 92.7187 540.597 97.1038 542.922 102.281C545.247 107.459 546.409 113.271 546.409 119.716ZM521.366 119.716C521.366 117.18 520.943 114.697 520.098 112.267C519.253 109.837 518.038 107.723 516.453 105.927C514.868 104.025 512.913 102.493 510.588 101.33C508.263 100.168 505.569 99.587 502.505 99.587C499.44 99.587 496.746 100.168 494.421 101.33C492.096 102.493 490.142 104.025 488.557 105.927C487.077 107.723 485.915 109.837 485.07 112.267C484.33 114.697 483.96 117.18 483.96 119.716C483.96 122.252 484.33 124.736 485.07 127.166C485.915 129.596 487.13 131.815 488.715 133.823C490.3 135.725 492.255 137.257 494.58 138.419C496.904 139.582 499.599 140.163 502.663 140.163C505.727 140.163 508.422 139.582 510.747 138.419C513.071 137.257 515.026 135.725 516.611 133.823C518.196 131.815 519.358 129.596 520.098 127.166C520.943 124.736 521.366 122.252 521.366 119.716ZM612.224 101.806C611.062 101.489 609.899 101.278 608.737 101.172C607.68 101.066 606.624 101.013 605.567 101.013C602.08 101.013 599.121 101.647 596.691 102.915C594.366 104.183 592.464 105.716 590.985 107.512C589.611 109.308 588.607 111.263 587.973 113.376C587.339 115.49 587.022 117.339 587.022 118.924V159.5H561.028V80.567H586.071V91.979H586.388C588.396 87.9637 591.249 84.688 594.947 82.152C598.646 79.616 602.925 78.348 607.786 78.348C608.843 78.348 609.846 78.4008 610.797 78.5065C611.854 78.6122 612.699 78.7707 613.333 78.982L612.224 101.806ZM644.088 145.552C644.088 149.99 642.503 153.688 639.333 156.647C636.268 159.606 632.57 161.085 628.238 161.085C626.019 161.085 623.905 160.662 621.898 159.817C619.996 159.077 618.305 158.021 616.826 156.647C615.346 155.273 614.184 153.688 613.339 151.892C612.493 149.99 612.071 147.929 612.071 145.71C612.071 143.597 612.493 141.589 613.339 139.688C614.184 137.785 615.346 136.148 616.826 134.774C618.305 133.295 619.996 132.132 621.898 131.287C623.905 130.442 626.019 130.019 628.238 130.019C632.57 130.019 636.268 131.498 639.333 134.457C642.503 137.416 644.088 141.114 644.088 145.552ZM688.342 55.3655C688.342 57.3732 687.919 59.2752 687.074 61.0715C686.334 62.7622 685.277 64.2415 683.904 65.5095C682.636 66.7775 681.051 67.7813 679.149 68.521C677.352 69.2607 675.45 69.6305 673.443 69.6305C669.216 69.6305 665.676 68.2568 662.823 65.5095C659.97 62.6565 658.544 59.2752 658.544 55.3655C658.544 53.4635 658.913 51.6672 659.653 49.9765C660.393 48.1802 661.449 46.648 662.823 45.38C664.197 44.112 665.782 43.1082 667.578 42.3685C669.374 41.5232 671.329 41.1005 673.443 41.1005C675.45 41.1005 677.352 41.4703 679.149 42.21C681.051 42.9497 682.636 43.9535 683.904 45.2215C685.277 46.4895 686.334 48.0217 687.074 49.818C687.919 51.5087 688.342 53.3578 688.342 55.3655ZM660.446 159.5V80.567H686.44V159.5H660.446ZM788.878 119.716C788.878 126.162 787.716 132.027 785.391 137.31C783.066 142.488 779.896 146.926 775.881 150.624C771.866 154.217 767.216 157.017 761.933 159.024C756.65 161.032 750.996 162.036 744.973 162.036C739.056 162.036 733.403 161.032 728.014 159.024C722.731 157.017 718.081 154.217 714.066 150.624C710.156 146.926 707.039 142.488 704.714 137.31C702.39 132.027 701.227 126.162 701.227 119.716C701.227 113.271 702.39 107.459 704.714 102.281C707.039 97.1038 710.156 92.7187 714.066 89.126C718.081 85.5333 722.731 82.786 728.014 80.884C733.403 78.982 739.056 78.031 744.973 78.031C750.996 78.031 756.65 78.982 761.933 80.884C767.216 82.786 771.866 85.5333 775.881 89.126C779.896 92.7187 783.066 97.1038 785.391 102.281C787.716 107.459 788.878 113.271 788.878 119.716ZM763.835 119.716C763.835 117.18 763.412 114.697 762.567 112.267C761.722 109.837 760.506 107.723 758.921 105.927C757.336 104.025 755.382 102.493 753.057 101.33C750.732 100.168 748.038 99.587 744.973 99.587C741.909 99.587 739.215 100.168 736.89 101.33C734.565 102.493 732.61 104.025 731.025 105.927C729.546 107.723 728.384 109.837 727.538 112.267C726.799 114.697 726.429 117.18 726.429 119.716C726.429 122.252 726.799 124.736 727.538 127.166C728.384 129.596 729.599 131.815 731.184 133.823C732.769 135.725 734.724 137.257 737.048 138.419C739.373 139.582 742.068 140.163 745.132 140.163C748.196 140.163 750.891 139.582 753.215 138.419C755.54 137.257 757.495 135.725 759.08 133.823C760.665 131.815 761.827 129.596 762.567 127.166C763.412 124.736 763.835 122.252 763.835 119.716Z" fill="black"/>
</mask>
<g mask="url(#mask0)">
<rect x="-52.7578" y="10.3613" width="901.608" height="197.277" rx="10" fill="url(#paint0_linear)"/>
</g>
<defs>
<linearGradient id="paint0_linear" x1="196.975" y1="-90.1239" x2="140.632" y2="261.043" gradientUnits="userSpaceOnUse">
<stop stop-color="#E64CFF"/>
<stop offset="1" stop-color="#FF860B"/>
</linearGradient>
</defs>
</svg>
