<svg width="281" height="280" viewBox="0 0 281 280" fill="none" xmlns="http://www.w3.org/2000/svg">
<path d="M280.362 0.179443H0.784912V279.757H280.362V0.179443Z" fill="#F26625"/>
<path d="M131.253 158.607L82.7925 68.2103H105.159L133.116 125.058C133.116 125.99 134.048 126.922 134.98 127.853C135.912 128.785 135.912 129.717 136.844 131.581L137.776 132.513V133.445C138.708 135.309 138.708 136.241 139.64 138.105C140.572 139.037 140.572 140.9 141.504 141.832C142.436 139.037 144.299 137.173 145.231 133.445C146.163 130.649 148.027 127.853 149.891 125.058L177.849 68.2103H198.351L149.891 159.539V217.318H131.253V158.607Z" fill="white"/>
</svg>
